<!-- <?xml version="1.0" standalone="no"?>
<!DOCTYPE svg PUBLIC "-//W3C//DTD SVG 20010904//EN"
 "http://www.w3.org/TR/2001/REC-SVG-20010904/DTD/svg10.dtd"> -->
<svg xmlns="http://www.w3.org/2000/svg"
 width="800.000000pt" height="300.000000pt" viewBox="0 0 800.000000 300.000000"
 preserveAspectRatio="xMidYMid meet">

<g transform="translate(0.000000,300.000000) scale(0.100000,-0.100000)"
 stroke="none">
<path d="M2131 2969 c-624 -66 -1095 -439 -1256 -994 -48 -167 -59 -255 -59
-470 0 -233 15 -334 74 -517 134 -409 427 -715 835 -872 252 -96 636 -131 901
-81 243 46 482 147 703 295 162 108 257 185 399 324 l122 119 -67 71 c-37 39
-130 136 -206 215 l-138 143 -113 -114 c-62 -63 -153 -144 -202 -181 -106 -80
-314 -186 -439 -224 -82 -24 -105 -27 -260 -27 -186 0 -269 14 -419 72 -166
65 -331 213 -405 363 -68 139 -84 217 -84 409 0 136 3 178 21 242 45 164 142
312 271 410 88 67 247 143 351 168 112 27 305 37 407 20 204 -33 475 -171 671
-342 155 -134 246 -254 549 -718 113 -173 208 -317 212 -320 3 -3 40 -45 80
-95 98 -119 283 -301 401 -396 495 -397 1033 -538 1586 -414 150 34 232 63
365 131 430 219 708 636 760 1139 16 163 6 376 -26 523 l-5 22 -740 0 -740 0
0 -215 0 -215 410 0 411 0 -7 -52 c-23 -182 -90 -330 -203 -450 -168 -179
-384 -272 -661 -285 -195 -9 -302 14 -500 108 -210 100 -385 236 -551 429
-114 131 -162 200 -404 573 -243 374 -342 495 -562 687 -144 126 -277 217
-446 305 -363 189 -668 252 -1036 214z"/>
<path d="M5520 2974 c-409 -49 -804 -240 -1173 -568 -50 -45 -120 -113 -155
-151 l-63 -69 207 -207 207 -207 101 105 c168 176 294 270 489 363 167 80 244
101 397 107 269 11 516 -70 705 -232 l53 -45 406 0 c223 0 406 2 406 5 0 18
-90 188 -138 261 -132 201 -322 368 -546 481 -102 51 -287 110 -422 134 -114
19 -389 33 -474 23z"/>
</g>
</svg>
